<mxfile host="app.diagrams.net" modified="2020-10-13T12:48:52.169Z" agent="5.0 (Windows NT 10.0; Win64; x64) AppleWebKit/537.36 (KHTML, like Gecko) Chrome/85.0.4183.121 Safari/537.36 Edg/85.0.564.68" etag="LafMOBgEmvWIQuvdsUY3" version="13.7.9" type="github">
  <diagram id="R2lEEEUBdFMjLlhIrx00" name="Page-1">
    <mxGraphModel dx="1888" dy="531" grid="1" gridSize="10" guides="1" tooltips="1" connect="1" arrows="1" fold="1" page="1" pageScale="1" pageWidth="850" pageHeight="1100" math="0" shadow="0" extFonts="Permanent Marker^https://fonts.googleapis.com/css?family=Permanent+Marker">
      <root>
        <mxCell id="0" />
        <mxCell id="1" parent="0" />
        <mxCell id="nMUNmADc9i3hNf2Lcc3y-1" value="Website" style="rounded=0;whiteSpace=wrap;html=1;" vertex="1" parent="1">
          <mxGeometry x="-830" y="10" width="160" height="40" as="geometry" />
        </mxCell>
        <mxCell id="nMUNmADc9i3hNf2Lcc3y-2" value="" style="edgeStyle=entityRelationEdgeStyle;fontSize=12;html=1;endArrow=ERoneToMany;exitX=1;exitY=0.5;exitDx=0;exitDy=0;" edge="1" parent="1" source="nMUNmADc9i3hNf2Lcc3y-1">
          <mxGeometry width="100" height="100" relative="1" as="geometry">
            <mxPoint x="-670" y="120" as="sourcePoint" />
            <mxPoint x="-620" y="30" as="targetPoint" />
          </mxGeometry>
        </mxCell>
        <mxCell id="nMUNmADc9i3hNf2Lcc3y-3" value="Customers" style="rounded=0;whiteSpace=wrap;html=1;" vertex="1" parent="1">
          <mxGeometry x="-620" y="10" width="120" height="40" as="geometry" />
        </mxCell>
        <mxCell id="nMUNmADc9i3hNf2Lcc3y-4" value="Products" style="rounded=0;whiteSpace=wrap;html=1;" vertex="1" parent="1">
          <mxGeometry x="-810" y="90" width="130" height="20" as="geometry" />
        </mxCell>
        <mxCell id="nMUNmADc9i3hNf2Lcc3y-5" value="" style="edgeStyle=entityRelationEdgeStyle;fontSize=12;html=1;endArrow=ERoneToMany;exitX=0.46;exitY=0.985;exitDx=0;exitDy=0;exitPerimeter=0;entryX=0;entryY=0.5;entryDx=0;entryDy=0;" edge="1" parent="1" source="nMUNmADc9i3hNf2Lcc3y-1" target="nMUNmADc9i3hNf2Lcc3y-4">
          <mxGeometry width="100" height="100" relative="1" as="geometry">
            <mxPoint x="-530" y="180" as="sourcePoint" />
            <mxPoint x="-430" y="80" as="targetPoint" />
          </mxGeometry>
        </mxCell>
        <mxCell id="nMUNmADc9i3hNf2Lcc3y-6" value="" style="edgeStyle=entityRelationEdgeStyle;fontSize=12;html=1;endArrow=ERzeroToMany;endFill=1;startArrow=ERzeroToMany;exitX=1;exitY=0.25;exitDx=0;exitDy=0;entryX=0;entryY=1;entryDx=0;entryDy=0;" edge="1" parent="1" source="nMUNmADc9i3hNf2Lcc3y-4" target="nMUNmADc9i3hNf2Lcc3y-3">
          <mxGeometry width="100" height="100" relative="1" as="geometry">
            <mxPoint x="-530" y="180" as="sourcePoint" />
            <mxPoint x="-430" y="80" as="targetPoint" />
          </mxGeometry>
        </mxCell>
        <mxCell id="nMUNmADc9i3hNf2Lcc3y-7" value="Transactions" style="whiteSpace=wrap;html=1;align=center;" vertex="1" parent="1">
          <mxGeometry x="-425" y="10" width="100" height="40" as="geometry" />
        </mxCell>
        <mxCell id="nMUNmADc9i3hNf2Lcc3y-8" value="" style="edgeStyle=entityRelationEdgeStyle;fontSize=12;html=1;endArrow=ERmany;startArrow=ERmany;entryX=0;entryY=0.5;entryDx=0;entryDy=0;exitX=1;exitY=0.5;exitDx=0;exitDy=0;" edge="1" parent="1" source="nMUNmADc9i3hNf2Lcc3y-3" target="nMUNmADc9i3hNf2Lcc3y-7">
          <mxGeometry width="100" height="100" relative="1" as="geometry">
            <mxPoint x="-530" y="180" as="sourcePoint" />
            <mxPoint x="-430" y="80" as="targetPoint" />
          </mxGeometry>
        </mxCell>
        <mxCell id="nMUNmADc9i3hNf2Lcc3y-9" style="edgeStyle=orthogonalEdgeStyle;rounded=0;orthogonalLoop=1;jettySize=auto;html=1;exitX=0;exitY=0.5;exitDx=0;exitDy=0;entryX=-0.05;entryY=0.415;entryDx=0;entryDy=0;entryPerimeter=0;" edge="1" parent="1" source="nMUNmADc9i3hNf2Lcc3y-3" target="nMUNmADc9i3hNf2Lcc3y-3">
          <mxGeometry relative="1" as="geometry" />
        </mxCell>
        <mxCell id="nMUNmADc9i3hNf2Lcc3y-10" value="Delivery Worker" style="whiteSpace=wrap;html=1;align=center;" vertex="1" parent="1">
          <mxGeometry x="-795" y="150" width="100" height="40" as="geometry" />
        </mxCell>
        <mxCell id="nMUNmADc9i3hNf2Lcc3y-11" value="" style="edgeStyle=entityRelationEdgeStyle;fontSize=12;html=1;endArrow=ERoneToMany;entryX=0;entryY=1;entryDx=0;entryDy=0;exitX=0;exitY=0;exitDx=0;exitDy=0;" edge="1" parent="1" source="nMUNmADc9i3hNf2Lcc3y-10" target="nMUNmADc9i3hNf2Lcc3y-4">
          <mxGeometry width="100" height="100" relative="1" as="geometry">
            <mxPoint x="-840" y="170" as="sourcePoint" />
            <mxPoint x="-430" y="80" as="targetPoint" />
          </mxGeometry>
        </mxCell>
        <mxCell id="nMUNmADc9i3hNf2Lcc3y-12" value="" style="edgeStyle=entityRelationEdgeStyle;fontSize=12;html=1;endArrow=ERoneToMany;exitX=1;exitY=0.5;exitDx=0;exitDy=0;entryX=0.5;entryY=1;entryDx=0;entryDy=0;" edge="1" parent="1" source="nMUNmADc9i3hNf2Lcc3y-10" target="nMUNmADc9i3hNf2Lcc3y-3">
          <mxGeometry width="100" height="100" relative="1" as="geometry">
            <mxPoint x="-530" y="180" as="sourcePoint" />
            <mxPoint x="-430" y="80" as="targetPoint" />
          </mxGeometry>
        </mxCell>
        <mxCell id="nMUNmADc9i3hNf2Lcc3y-13" value="Categories" style="whiteSpace=wrap;html=1;align=center;" vertex="1" parent="1">
          <mxGeometry x="-810" y="210" width="100" height="40" as="geometry" />
        </mxCell>
        <mxCell id="nMUNmADc9i3hNf2Lcc3y-14" value="" style="edgeStyle=entityRelationEdgeStyle;fontSize=12;html=1;endArrow=ERmany;startArrow=ERmany;exitX=1;exitY=0.5;exitDx=0;exitDy=0;" edge="1" parent="1" source="nMUNmADc9i3hNf2Lcc3y-13" target="nMUNmADc9i3hNf2Lcc3y-4">
          <mxGeometry width="100" height="100" relative="1" as="geometry">
            <mxPoint x="-530" y="180" as="sourcePoint" />
            <mxPoint x="-430" y="80" as="targetPoint" />
          </mxGeometry>
        </mxCell>
        <mxCell id="nMUNmADc9i3hNf2Lcc3y-15" value="" style="edgeStyle=entityRelationEdgeStyle;fontSize=12;html=1;endArrow=ERoneToMany;exitX=0.75;exitY=1;exitDx=0;exitDy=0;entryX=0;entryY=0.25;entryDx=0;entryDy=0;" edge="1" parent="1" source="nMUNmADc9i3hNf2Lcc3y-3" target="nMUNmADc9i3hNf2Lcc3y-13">
          <mxGeometry width="100" height="100" relative="1" as="geometry">
            <mxPoint x="-530" y="180" as="sourcePoint" />
            <mxPoint x="-430" y="80" as="targetPoint" />
          </mxGeometry>
        </mxCell>
        <mxCell id="nMUNmADc9i3hNf2Lcc3y-16" value="Orders" style="whiteSpace=wrap;html=1;align=center;" vertex="1" parent="1">
          <mxGeometry x="-460" y="90" width="100" height="40" as="geometry" />
        </mxCell>
        <mxCell id="nMUNmADc9i3hNf2Lcc3y-17" value="" style="edgeStyle=entityRelationEdgeStyle;fontSize=12;html=1;endArrow=ERmandOne;startArrow=ERmandOne;entryX=0;entryY=0.5;entryDx=0;entryDy=0;exitX=1;exitY=0.75;exitDx=0;exitDy=0;" edge="1" parent="1" source="nMUNmADc9i3hNf2Lcc3y-3" target="nMUNmADc9i3hNf2Lcc3y-16">
          <mxGeometry width="100" height="100" relative="1" as="geometry">
            <mxPoint x="-530" y="180" as="sourcePoint" />
            <mxPoint x="-430" y="80" as="targetPoint" />
          </mxGeometry>
        </mxCell>
        <mxCell id="nMUNmADc9i3hNf2Lcc3y-18" value="" style="edgeStyle=entityRelationEdgeStyle;fontSize=12;html=1;endArrow=ERoneToMany;exitX=1;exitY=0.75;exitDx=0;exitDy=0;" edge="1" parent="1" source="nMUNmADc9i3hNf2Lcc3y-10">
          <mxGeometry width="100" height="100" relative="1" as="geometry">
            <mxPoint x="-530" y="180" as="sourcePoint" />
            <mxPoint x="-460" y="125" as="targetPoint" />
          </mxGeometry>
        </mxCell>
        <mxCell id="nMUNmADc9i3hNf2Lcc3y-19" value="Address" style="whiteSpace=wrap;html=1;align=center;" vertex="1" parent="1">
          <mxGeometry x="-610" y="80" width="100" height="40" as="geometry" />
        </mxCell>
        <mxCell id="nMUNmADc9i3hNf2Lcc3y-20" value="" style="edgeStyle=entityRelationEdgeStyle;fontSize=12;html=1;endArrow=ERoneToMany;entryX=0.75;entryY=1;entryDx=0;entryDy=0;exitX=0.75;exitY=0;exitDx=0;exitDy=0;" edge="1" parent="1" source="nMUNmADc9i3hNf2Lcc3y-19" target="nMUNmADc9i3hNf2Lcc3y-3">
          <mxGeometry width="100" height="100" relative="1" as="geometry">
            <mxPoint x="-530" y="180" as="sourcePoint" />
            <mxPoint x="-430" y="80" as="targetPoint" />
          </mxGeometry>
        </mxCell>
        <mxCell id="nMUNmADc9i3hNf2Lcc3y-21" value="" style="edgeStyle=entityRelationEdgeStyle;fontSize=12;html=1;endArrow=ERoneToMany;exitX=1;exitY=1;exitDx=0;exitDy=0;" edge="1" parent="1" source="nMUNmADc9i3hNf2Lcc3y-10" target="nMUNmADc9i3hNf2Lcc3y-19">
          <mxGeometry width="100" height="100" relative="1" as="geometry">
            <mxPoint x="-530" y="180" as="sourcePoint" />
            <mxPoint x="-430" y="80" as="targetPoint" />
          </mxGeometry>
        </mxCell>
        <mxCell id="nMUNmADc9i3hNf2Lcc3y-22" value="Discount" style="whiteSpace=wrap;html=1;align=center;" vertex="1" parent="1">
          <mxGeometry x="-270" y="90" width="100" height="40" as="geometry" />
        </mxCell>
        <mxCell id="nMUNmADc9i3hNf2Lcc3y-23" value="" style="edgeStyle=entityRelationEdgeStyle;fontSize=12;html=1;endArrow=ERmandOne;startArrow=ERmandOne;entryX=0;entryY=0.5;entryDx=0;entryDy=0;exitX=1;exitY=0.5;exitDx=0;exitDy=0;" edge="1" parent="1" source="nMUNmADc9i3hNf2Lcc3y-7" target="nMUNmADc9i3hNf2Lcc3y-22">
          <mxGeometry width="100" height="100" relative="1" as="geometry">
            <mxPoint x="-530" y="260" as="sourcePoint" />
            <mxPoint x="-430" y="160" as="targetPoint" />
          </mxGeometry>
        </mxCell>
      </root>
    </mxGraphModel>
  </diagram>
</mxfile>
